<?xml version="1.0" encoding="UTF-8"?>
<svg xmlns="http://www.w3.org/2000/svg" xmlns:xlink="http://www.w3.org/1999/xlink" width="600pt" height="600pt" viewBox="0 0 600 600" version="1.1">
<g id="surface14048935">
<path style=" stroke:none;fill-rule:nonzero;fill:rgb(100%,85.882353%,8.235294%);fill-opacity:1;" d="M 213.75 451.253906 L 213.75 420 C 213.75 392.371094 196.5 365.113281 176.527344 333.546875 C 151.785156 294.449219 123.75 250.132812 123.75 195 C 123.75 97.816406 202.816406 18.75 300 18.75 C 397.183594 18.75 476.25 97.816406 476.25 195 C 476.25 250.132812 448.214844 294.449219 423.472656 333.546875 C 403.5 365.113281 386.25 392.371094 386.25 420 L 386.25 451.253906 Z M 213.75 451.253906 "/>
<path style=" stroke:none;fill-rule:nonzero;fill:rgb(72.941176%,60.784314%,28.235294%);fill-opacity:1;" d="M 300 22.5 C 395.113281 22.5 472.5 99.886719 472.5 195 C 472.5 249.050781 444.773438 292.875 420.308594 331.539062 C 400.019531 363.601562 382.5 391.289062 382.5 420 L 382.5 447.503906 L 217.5 447.503906 L 217.5 420 C 217.5 391.289062 199.980469 363.601562 179.691406 331.539062 C 155.226562 292.875 127.5 249.050781 127.5 195 C 127.5 99.886719 204.886719 22.5 300 22.5 M 300 15 C 200.585938 15 120 95.585938 120 195 C 120 294.996094 210 359.378906 210 420 L 210 455.003906 L 390 455.003906 L 390 420 C 390 359.378906 480 294.996094 480 195 C 480 95.585938 399.414062 15 300 15 Z M 300 15 "/>
<path style=" stroke:none;fill-rule:nonzero;fill:rgb(100%,100%,100%);fill-opacity:1;" d="M 340.71875 162.53125 C 350.25 162.53125 359.210938 166.246094 365.949219 172.988281 C 379.859375 186.898438 379.859375 209.542969 365.949219 223.453125 L 339.699219 249.703125 L 337.5 251.894531 L 337.5 442.5 L 262.5 442.5 L 262.5 251.894531 L 260.300781 249.699219 L 234.050781 223.449219 C 220.140625 209.535156 220.140625 186.890625 234.050781 172.980469 C 240.796875 166.238281 249.757812 162.523438 259.28125 162.523438 C 268.816406 162.523438 277.777344 166.238281 284.511719 172.980469 L 294.691406 183.15625 L 300 188.460938 L 305.300781 183.15625 L 315.480469 172.980469 C 322.222656 166.246094 331.183594 162.53125 340.71875 162.53125 M 340.71875 155.03125 C 329.664062 155.03125 318.613281 159.246094 310.183594 167.675781 L 300 177.855469 L 289.824219 167.675781 C 281.390625 159.246094 270.335938 155.03125 259.289062 155.03125 C 248.234375 155.03125 237.1875 159.246094 228.757812 167.675781 C 211.890625 184.546875 211.890625 211.882812 228.757812 228.75 L 255 255 L 255 450 L 345 450 L 345 255 L 371.25 228.75 C 388.117188 211.882812 388.117188 184.546875 371.25 167.675781 C 362.820312 159.246094 351.765625 155.03125 340.71875 155.03125 Z M 340.71875 155.03125 "/>
<path style=" stroke:none;fill-rule:nonzero;fill:rgb(54.509804%,45.882353%,63.137255%);fill-opacity:1;" d="M 300 480 C 271.003906 480 247.5 503.503906 247.5 532.5 C 247.5 561.496094 271.003906 585 300 585 C 328.996094 585 352.5 561.496094 352.5 532.5 C 352.5 503.503906 328.996094 480 300 480 Z M 300 480 "/>
<path style=" stroke:none;fill-rule:nonzero;fill:rgb(86.27451%,83.529412%,94.901961%);fill-opacity:1;" d="M 255 551.25 C 232.253906 551.25 213.75 532.746094 213.75 510 L 213.75 423.75 L 386.25 423.75 L 386.25 510 C 386.25 532.746094 367.746094 551.25 345 551.25 Z M 255 551.25 "/>
<path style=" stroke:none;fill-rule:nonzero;fill:rgb(54.509804%,45.882353%,63.137255%);fill-opacity:1;" d="M 382.5 427.5 L 382.5 510 C 382.5 530.675781 365.675781 547.5 345 547.5 L 255 547.5 C 234.324219 547.5 217.5 530.675781 217.5 510 L 217.5 427.5 L 382.5 427.5 M 390 420 L 210 420 L 210 510 C 210 534.855469 230.144531 555 255 555 L 345 555 C 369.855469 555 390 534.855469 390 510 Z M 390 420 "/>
<path style=" stroke:none;fill-rule:nonzero;fill:rgb(54.509804%,45.882353%,63.137255%);fill-opacity:1;" d="M 285 517.5 L 385.289062 517.5 L 385.289062 525 L 285 525 Z M 213.710938 517.5 L 255 517.5 L 255 525 L 213.710938 525 Z M 285 487.5 L 390 487.5 L 390 495 L 285 495 Z M 210 487.5 L 255 487.5 L 255 495 L 210 495 Z M 285 457.5 L 390 457.5 L 390 465 L 285 465 Z M 210 457.5 L 255 457.5 L 255 465 L 210 465 Z M 210 457.5 "/>
</g>
</svg>
